<?xml version="1.0" encoding="utf-8"?>
<!-- Generator: Adobe Illustrator 25.0.0, SVG Export Plug-In . SVG Version: 6.00 Build 0)  -->
<svg version="1.1" id="Calque_1" xmlns="http://www.w3.org/2000/svg" xmlns:xlink="http://www.w3.org/1999/xlink" x="0px" y="0px"
	 viewBox="0 0 448 448" style="enable-background:new 0 0 448 448;" xml:space="preserve">
<style type="text/css">
	.st0{fill:#D91A32;}
	.st1{fill:#D91A32;stroke:#000000;stroke-miterlimit:10;}
</style>
<path class="st0" d="M314.4,144H133.6l90.4,77.5L314.4,144z"/>
<path class="st0" d="M224,240c-1.9,0-3.8-0.7-5.2-1.9L120,153.4V304h208V153.4l-98.8,84.7C227.8,239.3,225.9,240,224,240z"/>
<path class="st1" d="M224,0C100.3,0,0,100.3,0,224s100.3,224,224,224s224-100.3,224-224C447.9,100.3,347.7,0.1,224,0z M344,312
	c0,4.4-3.6,8-8,8H112c-4.4,0-8-3.6-8-8V136c0-4.4,3.6-8,8-8h224c4.4,0,8,3.6,8,8V312z"/>
</svg>
