<?xml version="1.0" encoding="utf-8"?>
<!-- Generator: Adobe Illustrator 18.1.0, SVG Export Plug-In . SVG Version: 6.00 Build 0)  -->
<svg version="1.1" id="Calque_1" xmlns="http://www.w3.org/2000/svg" xmlns:xlink="http://www.w3.org/1999/xlink" x="0px" y="0px"
	 viewBox="0 0 500 500" enable-background="new 0 0 500 500" xml:space="preserve">
<path fill="#D91A32" d="M490.5,228.7c-5.6,8.8-11.1,17.7-16.8,26.4c-5.8,8.8-11.6,17.5-17.7,26c-2.9,4.1-6.8,7.7-12.5,5.8
	c-5.1-1.7-6.2-6.4-6.5-11.3c-0.5-8-1-16-1.4-24c-0.2-3.3,0-6.6,0-9.9c-0.7-0.3-1.3-0.6-2-0.9c-2.6,2.3-5.6,4.4-7.8,7
	c-17.1,19.9-34.1,39.8-50.9,59.9c-3,3.6-6.4,5.5-10.3,3.1c-4.7-2.8-2.8-6.7-0.5-10.4c1.4-2.3,2.5-4.9,3.5-6.8
	c-3.8-4.7-7.1-8.9-11.2-14.1c-1.8,2.4-3.5,5.1-5.5,7.5c-3.7,4.5-7.1,9.5-11.5,13.2c-7.8,6.6-15.7,3.9-17.8-6.2
	c-1.1-5.2-0.2-10.9-0.2-18.1c-12.2,9.2-22,22.4-39.4,14.9c-3.4-20.7,10.4-36.3,14.8-55.2c-1.7,1.3-4,2.3-5.1,4
	c-8.2,12.6-17.1,24.9-24,38.3c-18.1,35.3-28.2,73.5-39,111.5c-6.2,21.9-12.3,43.9-19,65.7c-1.4,4.7-5.5,8.5-8.3,12.8
	c-1.9,0-3.7,0-5.6,0c-7.9-5.1-8.1-11.8-5.3-20.1c12.8-38.6,25.2-77.3,37.7-115.9c0.8-2.4,1.1-5,2-9c-6.6,1.9-11.5,3.3-16.5,4.8
	c-64.1,19.8-128.2,39.7-192.3,59.6c-4.3,1.3-8.8,3.4-12.8-0.9c0-1.2,0-2.5,0-3.7c14.9-16.9,29.9-33.6,44.7-50.6
	C126.5,247.2,199.7,162.3,273,77.5c2-2.3,3.8-4.7,5-8.8c-2.4,0.4-4.9,0.7-7.3,1.3c-56.8,15.2-113.6,30.4-170.4,45.6
	c-4.4,1.2-8.8,2.8-12.9-0.7c0.1-6.6,5.4-6.6,9.1-7.8C128,96.5,159.6,86,191.2,75.5c37.4-12.4,74.9-24.8,112.3-37.3
	c3.1-1,6.1-2.8,9.1-4.2c1.9,0,3.7,0,5.6,0c0.9,0.8,1.9,1.6,2.8,2.4c7.3,6.6,7.7,11.5,1.1,18.8c-15.6,17.2-31.3,34.1-46.9,51.2
	c-10.2,11.1-20.4,22.3-31.2,34.2c10.9,7.8,7.1,16.4,2.2,25.3c-2.3,4.2-5,7.2-10.1,6.2c-4.7-0.9-6.5-4.2-6.4-8.8
	c0-1.1-0.5-2.3-1.4-5.6C162.3,229.6,97.6,300.2,32.9,370.8c0.5,0.8,0.9,1.6,1.4,2.4c66.6-19.9,132.9-41,200.5-61.6
	c5-15.3,10.2-30.9,15.3-46.6c-0.8-0.6-1.6-1.2-2.5-1.8c-1.3,1.9-2.5,3.9-3.8,5.7c-6.7,9.2-13.4,18.5-20.3,27.6
	c-2.7,3.6-6.3,6.5-9,9.2c-8.4-1.5-11-6.5-10.6-12.9c1-13.5,2.3-27,4-40.4c1.3-10.1,3-20.1,5.6-29.9c0.9-3.7,4-7.8,7.2-9.5
	c2.5-1.3,7.4-0.1,10.2,1.7c4.1,2.6,4,7.3,2.5,11.7c-3,8.7-6.5,17.3-9.2,26.2c-3,9.9-5.2,20-7.8,30c0.8,0.4,1.6,0.8,2.4,1.3
	c1.9-2.1,4.1-4,5.7-6.3c12.2-17.1,25.3-33.6,36.2-51.5c6.3-10.3,9.1-22.8,13.4-34.3c0.8-2,1.4-4.1,2-6.2c1.2-3.9,3.8-5.8,7.7-4.6
	c4.3,1.3,4.2,4.3,3,8.2c-4.5,14.7-8.7,29.5-12.8,44.4c-1.1,3.8-1.4,7.8-2.1,11.7l-0.2-0.2c3.3-5.1,6.6-10.2,9.8-15.3
	c6.4-10.3,13-20.3,26.1-23.4c10.9-2.5,19.6,5.4,16.1,16.1c-3.3,10.2-8.1,19.9-13,29.5c-4.5,8.9-9.9,17.5-14.2,26.8
	c6.3-0.5,10.3-4.4,13.3-8.7c10.2-14.7,19.8-29.7,29.8-44.6c6-8.9,11.8-18,18.3-26.6c2.5-3.3,6.5-5.8,10.3-7.7
	c4.9-2.5,11.3,0.1,13.5,4.7c2.1,4.4,0.9,10.8-3.6,13c-22.6,11-31.2,32.4-40,53.5c-3.5,8.4-7.1,17.1-4.8,28.9
	c3.3-4.1,6.3-6.6,7.8-9.9c5.6-12.6,10.8-25.5,16.1-38.3c0.8-2,0.8-4.9,2.2-5.9c2.7-1.9,6.2-3.8,9.4-3.9c4.2-0.1,6.4,3.3,6.5,7.5
	c0.1,3.5,0,7,0,10.6c0.8,0.2,1.6,0.5,2.3,0.7c5-9.4,10.3-18.6,14.8-28.2c2.6-5.5,3.7-11.7,5.6-17.6c2.7-8.3,7.9-11.9,13.9-9.5
	c6.4,2.6,8.2,8.9,4.7,16.9c-3.6,8.2-7.4,16.3-11,24.5c-1.2,2.7-2.2,5.5-3.3,8.3c0.5,0.4,1,0.8,1.5,1.1c1.8-1.8,3.6-3.5,5.3-5.3
	c7-7.4,13.9-14.9,21.1-22.1c4-4,9.1-5.8,14.4-3.1c4.9,2.4,6.5,7.3,6.3,12.5c-0.4,8.9-1,17.8-1.4,26.7c-0.1,3.2,0,6.5,1.7,10.5
	c1.8-2.2,4-4.2,5.4-6.7c6.7-11.1,13.5-22.1,19.5-33.6c3.2-6.2,7-9.8,14.2-9.1C490.5,221.3,490.5,225,490.5,228.7z"/>
</svg>
